<?xml version="1.0" standalone="no"?><!DOCTYPE svg PUBLIC "-//W3C//DTD SVG 1.1//EN" "http://www.w3.org/Graphics/SVG/1.1/DTD/svg11.dtd"><svg t="1559961064673" class="icon" style="" viewBox="0 0 1024 1024" version="1.1" xmlns="http://www.w3.org/2000/svg" p-id="608" xmlns:xlink="http://www.w3.org/1999/xlink" width="256" height="256"><defs><style type="text/css"></style></defs><path d="M675.0711052 674.75702585c0 16.2058873-5.064129 28.86705313-15.19322993 37.98265374-10.128258 9.11560061-22.78942383 13.67382322-38.48856096 13.67382322h-220.29720146c-15.69913715 0-28.36030297-4.55822178-37.98265374-13.67382322-10.128258-9.11560061-15.19322992-21.77676645-15.19322993-37.98265374V393.18099668c0-16.2058873 5.064129-28.36030297 15.19322993-37.4759036 10.128258-9.11560061 22.78942383-13.16707306 37.98265374-13.16707306H621.39015722c18.23120205 0 31.39911804 4.55822178 40.51471867 13.16707306 8.60969422 9.11560061 13.16707306 21.2700163 13.16707306 37.4759036l-0.00084375 281.57602917z m-53.68179089-261.82541959c0-6.58353652-1.01265738-10.63500815-2.53206492-12.66116583-1.51940753-2.02615769-5.064129-3.03881506-10.128258-3.03881506H412.73977838c-6.07678638 0-9.62235077 1.01265738-10.12825799 3.54472146-1.01265738 2.53206491-1.51940753 5.064129-1.51940754 8.60969422V500.54457928H621.39015722l-0.00084291-87.61297302z m0 142.3074213h-220.29720146V655.00641626c0 7.09028668 0.50675015 11.1417583 1.51940754 13.16707307 1.01265738 2.02615769 4.55822178 3.03881506 10.63500814 3.03881505h195.98921302c7.09028668 0 10.63500815-2.02615769 11.64766552-5.57087915 0.50675015-4.05147161 1.01265738-8.10294406 1.01265738-13.16707306v-97.23532461h-0.50675014zM420.33597229 199.21794134h168.13566019c14.17972961 0 25.32148792-14.17972961 25.32148791-27.85355281 0-16.71179452-11.1417583-27.85355283-25.32148791-27.85355283H420.33597229c-14.17972961 0-25.32148792 14.17972961-25.32148874 27.85355283 0 16.71179452 11.1417583 27.85355283 25.32148874 27.85355282z m252.20306882 30.89236708c16.71179452 0 27.85355283-11.1417583 27.85355283-22.28351661V117.6825968c0-14.17972961-11.1417583-22.2835166-27.85355283-22.2835166-16.71263745 0-27.85355283 11.1417583-27.85355283 22.2835166v89.63828779c0 14.17972961 14.17972961 22.78942383 27.85355283 22.78942383z" fill="#515151" p-id="609"></path><path d="M773.82499441 140.47202063h-17.21854468c-16.71263745 0-27.85355283 14.17972961-27.85355283 27.85355283 0 16.71179452 14.17972961 27.85355283 27.85355283 27.85355282h16.71263746c53.17504074 0 100.78004609 42.03412619 100.78004608 98.247982v473.51376975c0 53.17504074-45.07209751 98.24798199-100.78004608 98.24798198H246.63027588c-53.17504074 0-100.78004609-45.07294042-100.78004609-98.24798199V296.95917237c0-53.17504074 45.07209751-98.24798199 98.24798118-98.24798118 16.71263745 0 27.85355283-14.17972961 27.85355283-27.85355282 0-16.71179452-11.1417583-27.85355283-27.85355283-27.85355283C160.03080316 139.96527048 90.14312414 210.35885672 90.14312414 296.95917237v474.01967778A156.4837792 156.4837792 0 0 0 247.13702603 927.97275205h529.72678262a156.4837792 156.4837792 0 0 0 156.99390189-156.9939019V297.46507959c-3.03881506-87.10622288-73.43240048-156.99305896-160.03271613-156.99305896z" fill="#515151" p-id="610"></path><path d="M336.26856366 230.11030841c16.71263745 0 27.85355283-11.1417583 27.85355283-22.2835166V117.6825968c0-14.17972961-14.17972961-22.2835166-27.85355283-22.2835166-16.71263745 0-27.85355283 11.1417583-27.85355283 22.2835166v89.63828779c0 14.17972961 13.67382322 22.78942383 27.85355283 22.78942383z" fill="#515151" p-id="611"></path></svg>