<?xml version="1.0" standalone="no"?><!DOCTYPE svg PUBLIC "-//W3C//DTD SVG 1.1//EN" "http://www.w3.org/Graphics/SVG/1.1/DTD/svg11.dtd"><svg t="1559957370316" class="icon" style="" viewBox="0 0 1037 1024" version="1.1" xmlns="http://www.w3.org/2000/svg" p-id="5236" xmlns:xlink="http://www.w3.org/1999/xlink" width="32.40625" height="32"><defs><style type="text/css"></style></defs><path d="M425.544098 195.814269h170.070384c14.165619 0 25.489817-14.170804 25.489817-28.341607 0-17.027779-11.324199-28.346792-25.489817-28.346792h-170.070384c-14.170804 0-25.489817 14.170804-25.489817 28.346792 0 17.027779 11.319014 28.341607 25.489817 28.341607z m255.105575 31.198582c17.027779 0 28.346792-11.313829 28.346793-22.632842V113.636052c0-14.170804-11.319014-22.632842-28.346793-22.632842s-28.341607 11.313829-28.341607 22.632842v90.635071c0 14.175989 14.165619 22.741729 28.341607 22.741728z" fill="#606266" p-id="5237"></path><path d="M782.603757 136.268895h-17.027778c-17.027779 0-28.346792 14.170804-28.346793 28.346792 0 17.027779 14.170804 28.341607 28.346793 28.341607h17.027778c53.836609 0 102.06297 42.517596 102.06297 99.205995v478.893311c0 53.831424-45.369386 99.21118-102.06297 99.211181H249.76495c-53.831424 0-102.06297-45.379756-102.06297-99.211181V295.020264c0-53.831424 45.369386-99.205995 99.205995-99.205995 17.027779 0 28.346792-14.170804 28.346792-28.341607 0-17.027779-11.319014-28.346792-28.346792-28.346792-84.926305-2.856975-155.785508 68.002228-155.785508 155.894394v478.898496c0 87.886982 70.864388 158.75137 158.75137 158.75137h535.58171c87.892167 0 158.75137-70.864388 158.75137-158.75137V295.020264c-2.85179-87.892167-73.710993-158.75137-161.60316-158.751369z" fill="#606266" p-id="5238"></path><path d="M340.508907 227.012851c17.027779 0 28.346792-11.313829 28.346792-22.632842V113.636052c0-14.170804-14.170804-22.632842-28.346792-22.632842-17.027779 0-28.346792 11.313829-28.346792 22.632842v90.635071c0.005185 14.175989 14.175989 22.741729 28.346792 22.741728z m8.570925 507.234919l14.170803 11.324198c2.856975 2.856975 5.71395 2.856975 8.462039 2.856975 2.856975 0 8.456854-2.856975 8.456854-5.71395 31.203767-36.808831 50.979634-85.035192 56.688399-144.585751h195.555015v96.34902c0 8.462039-2.856975 8.462039-5.71395 8.462039h-62.293463c-5.71395 0-8.462039 2.856975-11.319013 5.719135-2.856975 2.856975-2.856975 8.456854-2.856975 11.313828l5.71395 14.170804c2.856975 5.71395 8.462039 8.462039 14.170803 8.462039h62.293463c28.346792 0 42.517596-17.032964 42.517596-45.374571v-354.088612c0-8.462039-5.719135-14.170804-14.170803-14.170804H408.625206c-8.456854 0-14.170804 5.71395-14.170803 14.170804v221.044832c0 62.293463-17.027779 110.519824-48.231546 150.18563-2.856975 5.708765-2.856975 14.165619 2.856975 19.874384z m93.492045-362.763239h192.69804v70.864388H442.571877V371.484531z m0 113.381984h192.69804v70.859203H442.571877V484.866515z" fill="#606266" p-id="5239"></path></svg>