<?xml version="1.0" standalone="no"?><!DOCTYPE svg PUBLIC "-//W3C//DTD SVG 1.1//EN" "http://www.w3.org/Graphics/SVG/1.1/DTD/svg11.dtd"><svg t="1559957408413" class="icon" style="" viewBox="0 0 1024 1024" version="1.1" xmlns="http://www.w3.org/2000/svg" p-id="6978" xmlns:xlink="http://www.w3.org/1999/xlink" width="32" height="32"><defs><style type="text/css"></style></defs><path d="M516.73088 59.43296c-172.4416 0-334.37696 99.65568-408.08448 246.45632l-12.30848-79.38048c-6.77888-19.41504-17.89952-30.0032-40.6528-25.88672-22.7328 4.11648-27.09504 19.39456-27.09504 38.8096l26.7264 165.84704c-0.512 5.67296 0.43008 11.61216 3.46112 17.34656 13.25056 25.04704 47.43168 12.94336 47.43168 12.94336l176.14848-84.0704c13.55776-12.94336 24.12544-25.1904 13.55776-45.2608-10.56768-20.09088-33.87392-19.39456-47.43168-12.94336l-85.83168 42.5984c61.80864-129.92512 202.38336-218.23488 354.07872-218.23488 216.80128 0 386.17088 161.6896 386.17088 368.64s-176.14848 368.64-386.17088 368.64c-101.62176 0-196.48512-38.8096-271.01184-109.93664a33.83296 33.83296 0 0 0-47.43168 0c-13.55776 12.94336-13.55776 32.33792 0 45.28128 81.3056 84.0704 196.48512 129.35168 318.42304 129.35168 250.6752 0 453.91872-194.02752 453.91872-426.84416 0.04096-239.34976-203.22304-433.3568-453.89824-433.3568z" fill="#5D5D5D" p-id="6979"></path><path d="M500.3264 305.19296c-19.27168 0-32.13312 12.20608-32.13312 30.5152v164.78208c0 5.77536 1.41312 10.8544 3.74784 15.21664 2.39616 5.7344 6.8608 10.91584 13.45536 14.90944l146.24768 88.59648c16.26112 9.85088 33.9968 6.12352 44.35968-9.33888 10.36288-15.44192 6.43072-32.29696-9.80992-42.14784l-133.75488-81.01888v-151.01952c0.02048-18.28864-12.82048-30.49472-32.11264-30.49472z" fill="#5D5D5D" p-id="6980"></path></svg>