<?xml version="1.0" standalone="no"?><!DOCTYPE svg PUBLIC "-//W3C//DTD SVG 1.1//EN" "http://www.w3.org/Graphics/SVG/1.1/DTD/svg11.dtd"><svg t="1559957346790" class="icon" style="" viewBox="0 0 1036 1024" version="1.1" xmlns="http://www.w3.org/2000/svg" p-id="3999" xmlns:xlink="http://www.w3.org/1999/xlink" width="32.375" height="32"><defs><style type="text/css"></style></defs><path d="M425.54368 195.8144h170.07104c14.16704 0 25.49248-14.17216 25.49248-28.34432 0-17.02912-11.32544-28.34944-25.49248-28.34944H425.54368c-14.17216 0-25.49248 14.17216-25.49248 28.34944 0.00512 17.02912 11.32032 28.34432 25.49248 28.34432z m255.104 31.19616c17.02912 0 28.34944-11.31008 28.34944-22.6304V113.63328c0-14.17216-11.32032-22.6304-28.34944-22.6304s-28.3392 11.3152-28.3392 22.6304v90.63936c0 14.17728 14.16192 22.73792 28.3392 22.73792z" fill="#606266" p-id="4000"></path><path d="M782.60736 136.2688h-17.02912c-17.024 0-28.34432 14.17216-28.34432 28.34944 0 17.02912 14.17216 28.34432 28.34432 28.34432h17.02912c53.8368 0 102.0672 42.51648 102.0672 99.20512v478.8992c0 53.83168-45.36832 99.21024-102.0672 99.21024H249.76384c-53.83168 0-102.06208-45.37856-102.06208-99.21024V295.01952c0-53.83168 45.36832-99.20512 99.20512-99.20512 17.02912 0 28.34944-14.17216 28.34944-28.34432 0-17.02912-11.32032-28.34944-28.34944-28.34944-84.92544-2.85696-155.78624 68.00384-155.78624 155.89376v478.8992c0 87.8848 70.86592 158.75072 158.75072 158.75072h535.5776c87.89504 0 158.75584-70.86592 158.75584-158.75072V295.01952c-2.85184-87.88992-73.70752-158.75072-161.59744-158.75072z" fill="#606266" p-id="4001"></path><path d="M340.51072 227.01056c17.02912 0 28.34432-11.31008 28.34432-22.6304V113.63328c0-14.17216-14.17216-22.6304-28.34432-22.6304-17.02912 0-28.34944 11.3152-28.34944 22.6304v90.63936c0.00512 14.17728 14.17728 22.73792 28.34944 22.73792zM399.95904 555.32032c-0.3328 25.00096-0.9984 47.0016-2.00192 66.00192-1.33632 26.33728-3.99872 48-8.00256 64.9984-6.00064 20.66432-15.17056 40.4992-27.49952 59.49952a97.83808 97.83808 0 0 1-10.99776 14.49984 390.41024 390.41024 0 0 1-16.50176 16.50176 532.93568 532.93568 0 0 0-22.00064-23.5008c-9.00096-8.66816-18.00192-16.16896-26.99776-22.5024 14.66368-11.33568 25.4976-22.99904 32.50176-35.00032 13.32736-20.66432 21.00224-53.16608 22.99904-97.50016 0.9984-8.33024 1.50016-22.00064 1.50016-41.00096l0.50176-68.50048c0-29.32736-0.50176-56.4992-1.50016-81.50016s-2.49856-53.00224-4.50048-83.99872l62.49984 1.50016h262.5024l63.49824-1.50016-2.00192 60.99968v346.50112c-0.3328 10.33216-1.17248 17.50016-2.49856 21.49888-2.66752 5.66272-7.5008 10.1632-14.49984 13.50144a131.84 131.84 0 0 1-26.99776 9.99936l-41.4976 5.49888c-3.67104-16.9984-10.99776-37.66784-22.00064-61.99808l22.00064 0.50176c9.00096-0.3328 15.49824-1.17248 19.50208-2.49856 2.66752-2.00192 4.50048-5.1712 5.49888-9.4976l0.9984-326.99904H400.4608l-0.50176 174.49472z m12.50304-54.5024l88.00256 0.9984v-28.00128l-79.49824 0.9984V422.81984l80 0.9984c-0.9984-6.00064-1.50016-18.00192-1.50016-35.99872h60.49792a363.2128 363.2128 0 0 0-0.9984 26.99776c0 3.00032 0.16384 6.00064 0.50176 9.00096l85.49888-0.9984v51.99872c-12.33408-0.6656-24.17152-0.9984-35.50208-0.9984h-50.49856v28.00128l96-0.9984v50.49856a832.8192 832.8192 0 0 0-40.4992-0.9984H453.45792c-13.99808 0.3328-27.66848 0.67072-41.00096 0.9984v-50.50368z m15.49824 162.00192l-1.50016-95.0016 51.99872 2.00192h108.00128l52.50048-2.00192-1.50016 51.50208 1.50016 95.49824-52.50048-2.00192H477.46048l-51.00032 2.00192 1.50016-51.99872z m152.4992 0.9984v-44.49792H482.4576v44.49792h98.00192z" fill="#606266" p-id="4002"></path></svg>