<?xml version="1.0" standalone="no"?><!DOCTYPE svg PUBLIC "-//W3C//DTD SVG 1.1//EN" "http://www.w3.org/Graphics/SVG/1.1/DTD/svg11.dtd"><svg t="1559957387504" class="icon" style="" viewBox="0 0 1037 1024" version="1.1" xmlns="http://www.w3.org/2000/svg" p-id="6107" xmlns:xlink="http://www.w3.org/1999/xlink" width="32.40625" height="32"><defs><style type="text/css"></style></defs><path d="M425.544098 195.814269h170.070384c14.165619 0 25.489817-14.170804 25.489817-28.341607 0-17.027779-11.324199-28.346792-25.489817-28.346792h-170.070384c-14.170804 0-25.489817 14.170804-25.489817 28.346792 0 17.027779 11.319014 28.341607 25.489817 28.341607z m255.105575 31.198582c17.022594 0 28.346792-11.313829 28.346793-22.632842V113.636052c0-14.170804-11.324199-22.632842-28.346793-22.632842-17.032964 0-28.346792 11.313829-28.346792 22.632842v90.635071c0.005185 14.175989 14.170804 22.741729 28.346792 22.741728z" fill="#333333" p-id="6108"></path><path d="M782.603757 136.268895h-17.022593c-17.027779 0-28.346792 14.170804-28.346793 28.346792 0 17.027779 14.165619 28.341607 28.346793 28.341607h17.022593c53.836609 0 102.068155 42.517596 102.068156 99.205995v478.893311c0 53.831424-45.369386 99.21118-102.068156 99.211181H249.76495c-53.831424 0-102.06297-45.379756-102.06297-99.211181V295.020264c0-53.831424 45.369386-99.205995 99.205995-99.205995 17.027779 0 28.346792-14.170804 28.346792-28.341607 0-17.027779-11.319014-28.346792-28.346792-28.346792-84.926305-2.856975-155.785508 68.002228-155.785508 155.894394v478.898496c0 87.886982 70.864388 158.75137 158.75137 158.75137h535.58171c87.892167 0 158.75137-70.864388 158.75137-158.75137V295.020264c-2.85179-87.892167-73.710993-158.75137-161.60316-158.751369z" fill="#333333" p-id="6109"></path><path d="M340.508907 227.012851c17.027779 0 28.346792-11.313829 28.346792-22.632842V113.636052c0-14.170804-14.170804-22.632842-28.346792-22.632842-17.027779 0-28.346792 11.313829-28.346792 22.632842v90.635071c0.005185 14.175989 14.175989 22.741729 28.346792 22.741728zM320.421935 428.634402c18.780333-19.96253 39.344331-49.916695 61.67644-89.86768 12.910831-27.009043 26.4335-38.768788 40.526528-35.242939 17.618877 3.525849 24.670576 13.517484 21.144726 29.954165-1.187382 2.369578-2.945121 4.708046-5.288774 7.046514-2.369578 5.895428-3.525849 9.416092-3.52585 10.572363h248.458312c16.43668 1.187382 25.246119 9.99682 26.433501 26.433501 0 17.618877-8.233895 26.4335-24.670576 26.4335h-121.584769v54.624741h114.538255c14.098213 1.187382 22.300998 9.416092 24.670576 24.670575-1.187382 16.467791-8.809438 24.670576-22.907651 24.670576h-116.30118v86.34183h132.157132c14.098213 1.187382 21.144726 9.99682 21.144726 26.4335-1.187382 16.467791-8.809438 24.670576-22.907651 24.670576h-130.394207v59.913515c-1.187382 14.098213-9.99682 21.720269-26.4335 22.907651-17.618877 0-26.4335-7.046514-26.433501-21.144727v-61.676439H327.468449c-15.280409 0-23.514305-8.202785-24.670576-24.670576 1.156271-16.43668 9.390167-25.246119 24.670576-26.4335h40.526528V500.883204c-2.369578-29.347511 12.910831-43.445724 45.815302-42.289452H510.729657V403.963826H406.763765c-16.462606 28.196425-33.480014 49.341151-51.098891 63.434179-16.462606 11.759745-30.560818 12.335288-42.289452 1.762925-9.416092-11.723449-7.051699-25.246119 7.046513-40.526528z m98.677118 91.630604v74.006542H510.729657V507.929718H431.434341c-9.416092 1.182197-13.517484 5.283589-12.335288 12.335288z" fill="#333333" p-id="6110"></path></svg>